<mxfile host="app.diagrams.net" agent="Mozilla/5.0 (Windows NT 10.0; Win64; x64) AppleWebKit/537.36 (KHTML, like Gecko) Chrome/135.0.0.0 Safari/537.36" version="26.2.9">
  <diagram name="Página-1" id="kgzuPSxs0xSWNn6t18aC">
    <mxGraphModel dx="1428" dy="743" grid="1" gridSize="10" guides="1" tooltips="1" connect="1" arrows="1" fold="1" page="1" pageScale="1" pageWidth="850" pageHeight="1100" math="0" shadow="0">
      <root>
        <mxCell id="0" />
        <mxCell id="1" parent="0" />
        <mxCell id="3M8094vawtQnUk5PxEKl-8" style="edgeStyle=orthogonalEdgeStyle;rounded=0;orthogonalLoop=1;jettySize=auto;html=1;exitX=0.5;exitY=1;exitDx=0;exitDy=0;" edge="1" parent="1" source="3M8094vawtQnUk5PxEKl-1" target="3M8094vawtQnUk5PxEKl-2">
          <mxGeometry relative="1" as="geometry" />
        </mxCell>
        <mxCell id="3M8094vawtQnUk5PxEKl-1" value="Avaliador-UI" style="shape=process;whiteSpace=wrap;html=1;backgroundOutline=1;" vertex="1" parent="1">
          <mxGeometry x="350" y="120" width="120" height="60" as="geometry" />
        </mxCell>
        <mxCell id="3M8094vawtQnUk5PxEKl-6" style="edgeStyle=orthogonalEdgeStyle;rounded=0;orthogonalLoop=1;jettySize=auto;html=1;" edge="1" parent="1" source="3M8094vawtQnUk5PxEKl-2" target="3M8094vawtQnUk5PxEKl-5">
          <mxGeometry relative="1" as="geometry" />
        </mxCell>
        <mxCell id="3M8094vawtQnUk5PxEKl-12" style="edgeStyle=orthogonalEdgeStyle;rounded=0;orthogonalLoop=1;jettySize=auto;html=1;exitX=0.5;exitY=1;exitDx=0;exitDy=0;entryX=0;entryY=0.5;entryDx=0;entryDy=0;entryPerimeter=0;" edge="1" parent="1" source="3M8094vawtQnUk5PxEKl-2" target="3M8094vawtQnUk5PxEKl-11">
          <mxGeometry relative="1" as="geometry">
            <mxPoint x="480" y="440" as="targetPoint" />
          </mxGeometry>
        </mxCell>
        <mxCell id="3M8094vawtQnUk5PxEKl-13" value="(Apenas na segunda-fase)" style="edgeLabel;html=1;align=center;verticalAlign=middle;resizable=0;points=[];" vertex="1" connectable="0" parent="3M8094vawtQnUk5PxEKl-12">
          <mxGeometry x="0.0275" y="-3" relative="1" as="geometry">
            <mxPoint x="24" y="-3" as="offset" />
          </mxGeometry>
        </mxCell>
        <mxCell id="3M8094vawtQnUk5PxEKl-16" style="edgeStyle=orthogonalEdgeStyle;rounded=0;orthogonalLoop=1;jettySize=auto;html=1;exitX=0.25;exitY=1;exitDx=0;exitDy=0;" edge="1" parent="1" source="3M8094vawtQnUk5PxEKl-2" target="3M8094vawtQnUk5PxEKl-15">
          <mxGeometry relative="1" as="geometry" />
        </mxCell>
        <mxCell id="3M8094vawtQnUk5PxEKl-17" value="Busca informações adicionais do restaurante" style="edgeLabel;html=1;align=center;verticalAlign=middle;resizable=0;points=[];" vertex="1" connectable="0" parent="3M8094vawtQnUk5PxEKl-16">
          <mxGeometry x="0.4842" y="-2" relative="1" as="geometry">
            <mxPoint x="22" y="-11" as="offset" />
          </mxGeometry>
        </mxCell>
        <mxCell id="3M8094vawtQnUk5PxEKl-20" style="edgeStyle=orthogonalEdgeStyle;rounded=0;orthogonalLoop=1;jettySize=auto;html=1;exitX=0.25;exitY=1;exitDx=0;exitDy=0;entryX=0.5;entryY=0;entryDx=0;entryDy=0;" edge="1" parent="1" source="3M8094vawtQnUk5PxEKl-2" target="3M8094vawtQnUk5PxEKl-19">
          <mxGeometry relative="1" as="geometry" />
        </mxCell>
        <mxCell id="3M8094vawtQnUk5PxEKl-21" value="No futuro (para uso interno)" style="edgeLabel;html=1;align=center;verticalAlign=middle;resizable=0;points=[];" vertex="1" connectable="0" parent="3M8094vawtQnUk5PxEKl-20">
          <mxGeometry x="0.8429" y="1" relative="1" as="geometry">
            <mxPoint as="offset" />
          </mxGeometry>
        </mxCell>
        <mxCell id="3M8094vawtQnUk5PxEKl-2" value="Avaliador-API" style="shape=process;whiteSpace=wrap;html=1;backgroundOutline=1;" vertex="1" parent="1">
          <mxGeometry x="350" y="290" width="120" height="60" as="geometry" />
        </mxCell>
        <mxCell id="3M8094vawtQnUk5PxEKl-3" value="Avaliador DB" style="shape=cylinder3;whiteSpace=wrap;html=1;boundedLbl=1;backgroundOutline=1;size=15;" vertex="1" parent="1">
          <mxGeometry x="690" y="280" width="60" height="80" as="geometry" />
        </mxCell>
        <mxCell id="3M8094vawtQnUk5PxEKl-4" style="edgeStyle=orthogonalEdgeStyle;rounded=0;orthogonalLoop=1;jettySize=auto;html=1;exitX=1;exitY=0.5;exitDx=0;exitDy=0;entryX=0;entryY=0.5;entryDx=0;entryDy=0;entryPerimeter=0;" edge="1" parent="1" source="3M8094vawtQnUk5PxEKl-2" target="3M8094vawtQnUk5PxEKl-3">
          <mxGeometry relative="1" as="geometry" />
        </mxCell>
        <mxCell id="3M8094vawtQnUk5PxEKl-14" value="Fase inicial (informações básica)" style="edgeLabel;html=1;align=center;verticalAlign=middle;resizable=0;points=[];" vertex="1" connectable="0" parent="3M8094vawtQnUk5PxEKl-4">
          <mxGeometry x="-0.2154" relative="1" as="geometry">
            <mxPoint x="14" as="offset" />
          </mxGeometry>
        </mxCell>
        <mxCell id="3M8094vawtQnUk5PxEKl-5" value="GPT&lt;br&gt;Assistant" style="ellipse;shape=cloud;whiteSpace=wrap;html=1;" vertex="1" parent="1">
          <mxGeometry x="120" y="360" width="120" height="80" as="geometry" />
        </mxCell>
        <mxCell id="3M8094vawtQnUk5PxEKl-9" value="VectorStore" style="shape=cylinder3;whiteSpace=wrap;html=1;boundedLbl=1;backgroundOutline=1;size=15;" vertex="1" parent="1">
          <mxGeometry x="140" y="470" width="80" height="80" as="geometry" />
        </mxCell>
        <mxCell id="3M8094vawtQnUk5PxEKl-10" style="edgeStyle=orthogonalEdgeStyle;rounded=0;orthogonalLoop=1;jettySize=auto;html=1;entryX=0.5;entryY=0;entryDx=0;entryDy=0;entryPerimeter=0;" edge="1" parent="1" source="3M8094vawtQnUk5PxEKl-5" target="3M8094vawtQnUk5PxEKl-9">
          <mxGeometry relative="1" as="geometry" />
        </mxCell>
        <mxCell id="3M8094vawtQnUk5PxEKl-11" value="Instructions" style="shape=cylinder3;whiteSpace=wrap;html=1;boundedLbl=1;backgroundOutline=1;size=15;" vertex="1" parent="1">
          <mxGeometry x="680" y="380" width="80" height="90" as="geometry" />
        </mxCell>
        <mxCell id="3M8094vawtQnUk5PxEKl-15" value="Ifood-api-scrap" style="shape=process;whiteSpace=wrap;html=1;backgroundOutline=1;" vertex="1" parent="1">
          <mxGeometry x="320" y="540" width="120" height="60" as="geometry" />
        </mxCell>
        <mxCell id="3M8094vawtQnUk5PxEKl-18" value="&lt;h1 style=&quot;margin-top: 0px;&quot;&gt;&lt;font style=&quot;font-size: 14px;&quot;&gt;Web Scrapping&lt;/font&gt;&lt;/h1&gt;&lt;div&gt;&lt;font style=&quot;font-size: 14px;&quot;&gt;Busca informações que o GPT não consegue buscar de forma automática&lt;/font&gt;&lt;/div&gt;" style="text;html=1;whiteSpace=wrap;overflow=hidden;rounded=0;" vertex="1" parent="1">
          <mxGeometry x="450" y="540" width="180" height="120" as="geometry" />
        </mxCell>
        <mxCell id="3M8094vawtQnUk5PxEKl-19" value="ifood-api-merchant" style="shape=process;whiteSpace=wrap;html=1;backgroundOutline=1;" vertex="1" parent="1">
          <mxGeometry x="210" y="660" width="120" height="60" as="geometry" />
        </mxCell>
        <mxCell id="3M8094vawtQnUk5PxEKl-22" value="&lt;h1 style=&quot;margin-top: 0px;&quot;&gt;&lt;font style=&quot;font-size: 14px;&quot;&gt;API Integração IFood&lt;/font&gt;&lt;/h1&gt;&lt;div&gt;&lt;font style=&quot;font-size: 14px;&quot;&gt;Busca informações quando restaurante já é cliente Eneway&lt;/font&gt;&lt;/div&gt;" style="text;html=1;whiteSpace=wrap;overflow=hidden;rounded=0;" vertex="1" parent="1">
          <mxGeometry x="350" y="660" width="200" height="120" as="geometry" />
        </mxCell>
        <mxCell id="3M8094vawtQnUk5PxEKl-23" value="*Opcional" style="text;html=1;align=center;verticalAlign=middle;whiteSpace=wrap;rounded=0;" vertex="1" parent="1">
          <mxGeometry x="150" y="555" width="60" height="30" as="geometry" />
        </mxCell>
      </root>
    </mxGraphModel>
  </diagram>
</mxfile>
